<?xml version="1.0" encoding="utf-8"?>
<!-- Generator: Adobe Illustrator 26.2.0, SVG Export Plug-In . SVG Version: 6.00 Build 0)  -->
<svg version="1.1" id="a" xmlns="http://www.w3.org/2000/svg" xmlns:xlink="http://www.w3.org/1999/xlink" x="0px" y="0px"
	 viewBox="0 0 585 172" style="enable-background:new 0 0 585 172;" xml:space="preserve">
<style type="text/css">
	.st0{fill:#B51882;}
	.st1{opacity:0;}
	.st2{fill:#FFFFFF;}
	.st3{fill:#616666;}
</style>
<circle class="st0" cx="70.8" cy="40.1" r="16.1"/>
<g>
	<path class="st0" d="M32.8,62h22.5c0.5,0,0.9,0.2,1.3,0.4c19.1,15.3,41.8,41.9,56.2,78.8c0.5,1.3-0.5,2.7-1.9,2.7H80.1
		c-0.9,0-1.7-0.6-1.9-1.5c-7.4-29.2-23.5-51.1-46.8-77.1C30.1,64.1,31.1,62,32.8,62L32.8,62z"/>
	<g>
		<path class="st0" d="M115.1,44.7c-14.4,5-78.4,30.6-83.5,97c-0.1,1.3,0.9,2.3,2.2,2.3l28.8,0.1c1,0,1.9-0.7,2.1-1.7
			c2.4-9.7,16.2-59.6,52.2-80.8c0.7-0.4,1.1-1.1,1.1-1.9l0-13C118,45.3,116.5,44.2,115.1,44.7z"/>
		<g class="st1">
			<path class="st2" d="M115.8,44.6c1.2,0,2.2,0.9,2.2,2.2l0,13c0,0.8-0.4,1.5-1.1,1.9c-36,21.2-49.8,71.1-52.2,80.8
				c-0.2,1-1.1,1.7-2.1,1.7h0L33.8,144c-1.3,0-2.3-1.1-2.2-2.3c5.1-66.3,69-92,83.5-97C115.3,44.6,115.6,44.6,115.8,44.6
				 M115.8,41.1c-0.6,0-1.2,0.1-1.8,0.3c-7.7,2.6-27.6,10.5-46.3,26.1c-24,19.9-37.2,44.8-39.5,73.9c-0.1,1.6,0.4,3.1,1.5,4.3
				c1.1,1.2,2.6,1.8,4.2,1.8l28.8,0.1c2.6,0,4.9-1.8,5.5-4.3c2.3-9.5,15.8-58.1,50.6-78.6c1.7-1,2.8-2.9,2.8-4.9l0-13
				C121.5,43.6,118.9,41.1,115.8,41.1L115.8,41.1L115.8,41.1z"/>
		</g>
	</g>
</g>
<g>
	<path class="st0" d="M138.4,130.3c-1.7,0-4.2-0.1-6.9-0.5v12.8c0,0.8-0.6,1.4-1.4,1.4h-6.6c-0.8,0-1.4-0.6-1.4-1.4V92.5
		c0-1.1,0.3-1.5,1.9-1.9c4.5-1.2,9.9-1.9,14.5-1.9c11.6,0,17.2,6.8,17.2,18.1v5.5C155.6,123.5,149.9,130.3,138.4,130.3L138.4,130.3z
		 M146.1,106.7c0-5.9-1.5-10.3-7.7-10.3c-2.6,0-5.5,0.2-6.9,0.5V122c2,0.3,5.2,0.5,6.9,0.5c6.2,0,7.7-4.4,7.7-10.3V106.7
		L146.1,106.7z"/>
	<path class="st0" d="M195.2,112.8h-23.5v0.2c0,4.2,1.7,9.1,8.6,9.1c5.3,0,10.2-0.4,13.2-0.7h0.2c0.7,0,1.3,0.4,1.3,1.1v4.8
		c0,1.1-0.2,1.7-1.5,1.9c-4.7,0.9-7.5,1.2-14,1.2c-7.2,0-17.4-3.9-17.4-18.1v-5.3c0-11.2,6.3-18.3,17.3-18.3s17.1,7.6,17.1,18.3v4
		C196.7,112.1,196.3,112.7,195.2,112.8L195.2,112.8z M187.1,105.7c0-5.6-3.1-8.9-7.6-8.9s-7.7,3.2-7.7,8.9v0.3h15.3V105.7z"/>
	<path class="st0" d="M224.2,96.7c-3.9,0-6.9,1-9.9,2.6v28.9c0,0.8-0.6,1.5-1.4,1.5h-6.6c-0.8,0-1.4-0.7-1.4-1.5V90.6
		c0-0.8,0.6-1.4,1.4-1.4h6.3c0.8,0,1.4,0.7,1.4,1.4v1.5c3.5-2.7,7.4-3.5,10.3-3.5c0.8,0,1.4,0.7,1.4,1.4v5.2
		C225.7,96,225,96.7,224.2,96.7L224.2,96.7z"/>
	<path class="st0" d="M240.3,83.7h-7c-0.8,0-1.5-0.7-1.5-1.4v-6.3c0-0.8,0.7-1.4,1.5-1.4h7c0.8,0,1.4,0.7,1.4,1.4v6.3
		C241.8,83.1,241.1,83.7,240.3,83.7z M240.1,129.7h-6.6c-0.8,0-1.4-0.7-1.4-1.5V90.6c0-0.8,0.6-1.4,1.4-1.4h6.6
		c0.8,0,1.4,0.7,1.4,1.4v37.7C241.5,129,240.9,129.7,240.1,129.7z"/>
	<path class="st0" d="M282.9,112.8h-23.5v0.2c0,4.2,1.7,9.1,8.6,9.1c5.3,0,10.2-0.4,13.2-0.7h0.2c0.7,0,1.3,0.4,1.3,1.1v4.8
		c0,1.1-0.2,1.7-1.5,1.9c-4.7,0.9-7.5,1.2-14,1.2c-7.2,0-17.4-3.9-17.4-18.1v-5.3c0-11.2,6.3-18.3,17.3-18.3s17.1,7.6,17.1,18.3v4
		C284.3,112.1,283.9,112.7,282.9,112.8L282.9,112.8z M274.7,105.7c0-5.6-3.1-8.9-7.6-8.9s-7.7,3.2-7.7,8.9v0.3h15.3L274.7,105.7
		L274.7,105.7z"/>
	<path class="st0" d="M324.3,129.8h-6.6c-0.8,0-1.4-0.7-1.4-1.5v-23.5c0-6.3-0.6-8.1-6.1-8.1c-2.5,0-5.1,1-8.1,2.6v28.9
		c0,0.8-0.6,1.5-1.4,1.5h-6.6c-0.8,0-1.4-0.7-1.4-1.5V90.6c0-0.8,0.6-1.4,1.4-1.4h6.3c0.8,0,1.4,0.7,1.4,1.4v1.5
		c4.2-2.7,6.9-3.5,11.7-3.5c10.4,0,12.5,7,12.5,16.1v23.5C325.7,129,325.1,129.7,324.3,129.8L324.3,129.8z"/>
	<path class="st0" d="M359.3,129.4c-1.7,0.4-4.9,0.9-9.3,0.9c-9.4,0-16.4-5.8-16.4-17.5v-6.7c0-11.7,7.1-17.5,16.4-17.5
		c4.4,0,7.6,0.5,9.3,0.9c1.2,0.3,1.5,0.7,1.5,1.9v4.7c0,0.7-0.6,1.1-1.3,1.1h-0.2c-2.9-0.4-4.6-0.5-9.3-0.5c-3.4,0-6.9,1.9-6.9,9.4
		v6.7c0,7.5,3.5,9.4,6.9,9.4c4.7,0,6.4-0.1,9.3-0.5h0.2c0.7,0,1.3,0.4,1.3,1.1v4.7C360.8,128.7,360.5,129.1,359.3,129.4L359.3,129.4
		z"/>
	<path class="st0" d="M399.4,112.8H376v0.2c0,4.2,1.7,9.1,8.6,9.1c5.3,0,10.2-0.4,13.2-0.7h0.2c0.7,0,1.3,0.4,1.3,1.1v4.8
		c0,1.1-0.2,1.7-1.5,1.9c-4.7,0.9-7.5,1.2-14,1.2c-7.2,0-17.4-3.9-17.4-18.1v-5.3c0-11.2,6.3-18.3,17.3-18.3s17.1,7.6,17.1,18.3v4
		C400.9,112.1,400.5,112.7,399.4,112.8L399.4,112.8z M391.3,105.7c0-5.6-3.1-8.9-7.6-8.9s-7.7,3.2-7.7,8.9v0.3h15.3L391.3,105.7
		L391.3,105.7z"/>
	<path class="st3" d="M439.2,128.4c-4.5,1.1-9.9,1.9-14.5,1.9c-11.6,0-17.2-6.8-17.2-18.1v-5.5c0-11.2,5.6-18.1,17.2-18.1
		c1.7,0,4.2,0.1,6.9,0.5V76.4c0-0.8,0.6-1.4,1.4-1.4h6.6c0.8,0,1.4,0.7,1.4,1.4v50.1C441.2,127.6,440.9,128,439.2,128.4z
		 M431.7,96.9c-2-0.3-5.2-0.5-6.9-0.5c-6.2,0-7.7,4.4-7.7,10.3v5.5c0,5.9,1.5,10.3,7.7,10.3c2.6,0,5.5-0.2,6.9-0.5V96.9L431.7,96.9z
		"/>
	<path class="st3" d="M479.2,129.8h-6.1c-0.8,0-1.4-0.6-1.4-1.4v-1.2c-3.3,2-6.7,3.2-10.1,3.2c-6,0-12.5-2.3-12.5-12V118
		c0-8.2,5-12.5,17.6-12.5h4.5v-3.2c0-4.7-2.1-5.8-6.3-5.8c-4.6,0-9.4,0.3-11.7,0.6h-0.4c-0.7,0-1.3-0.2-1.3-1.2v-4.6
		c0-0.8,0.4-1.3,1.4-1.5c2.9-0.6,7.1-1.2,12-1.2c10.2,0,15.8,4.5,15.8,13.8v25.9C480.6,129.1,480,129.8,479.2,129.8L479.2,129.8z
		 M471.1,111.9h-4.5c-6.5,0-8,2.1-8,6.1v0.3c0,3.5,1.6,4.5,5.2,4.5c2.6,0,5.3-0.9,7.3-2L471.1,111.9L471.1,111.9z"/>
	<path class="st3" d="M522,90.8l-12,42c-2.2,7.9-4.9,11.3-14.7,11.3c-2.4,0-6-0.4-7.6-0.9c-0.8-0.2-1.5-0.5-1.5-1.2v-4.6
		c0-0.8,0.6-1.3,1.4-1.3h0.1c2,0.1,6.1,0.4,8.1,0.4c3.1,0,4.7-0.9,5.7-4.6l0.6-2.2H501c-2.1,0-4.7-0.5-6.3-6l-9.4-33
		c-0.1-0.2-0.1-0.4-0.1-0.5c0-0.7,0.4-1.2,1.4-1.2h7.3c0.6,0,1.2,0.7,1.4,1.3l7.3,29.3c0.3,1.2,0.6,1.6,1,1.6h0.6l7.8-31
		c0.1-0.7,0.7-1.2,1.4-1.2h7.3c0.7,0,1.3,0.6,1.3,1.2C522.1,90.5,522.1,90.6,522,90.8L522,90.8z"/>
	<path class="st3" d="M541.7,130.3c-2.8,0-8.9-0.4-12.9-1.4c-0.9-0.2-1.4-0.8-1.4-1.7v-4.3c0-0.6,0.5-1.2,1.2-1.2h0.3
		c3.5,0.4,9.9,0.8,12.1,0.8c4.5,0,5.1-1.5,5.1-3.5c0-1.4-0.9-2.2-3.2-3.7l-9.9-6.1c-3.5-2.2-6-5.8-6-9.9c0-7.2,4.5-10.8,13.7-10.8
		c5.8,0,9.1,0.7,12.8,1.4c0.9,0.2,1.3,0.8,1.3,1.7v4.2c0,0.9-0.4,1.4-1.2,1.4h-0.3c-2-0.3-7.8-0.9-11.9-0.9c-3.5,0-5,0.8-5,3
		c0,1.2,1.1,1.9,2.9,2.9l9.4,5.8c6,3.7,6.9,7.3,6.9,10.9C555.8,125.3,551.1,130.3,541.7,130.3L541.7,130.3z"/>
</g>
<g>
	<path class="st3" d="M517.2,141.4c0-0.7-0.2-1.3-1.3-2l-1.8-1.1c-0.3-0.2-0.5-0.3-0.5-0.6c0-0.4,0.3-0.6,1-0.6
		c0.8,0,1.9,0.1,2.3,0.2h0.1c0.1,0,0.2-0.1,0.2-0.2v-0.8c0-0.2-0.1-0.3-0.2-0.3c-0.7-0.1-1.3-0.3-2.5-0.3c-1.8,0-2.6,0.7-2.6,2
		c0,0.8,0.5,1.4,1.2,1.8l1.9,1.1c0.4,0.3,0.6,0.4,0.6,0.7c0,0.4-0.1,0.6-1,0.6c-0.4,0-1.7-0.1-2.3-0.1H512c-0.1,0-0.2,0.1-0.2,0.2
		v0.8c0,0.2,0.1,0.3,0.3,0.3c0.8,0.2,1.9,0.3,2.5,0.3C516.3,143.5,517.2,142.6,517.2,141.4L517.2,141.4L517.2,141.4z"/>
	<path class="st3" d="M525.2,136.1c0-0.1-0.1-0.2-0.2-0.2h-1.4c-0.1,0-0.2,0.1-0.3,0.2l-1.5,5.7h-0.1c-0.1,0-0.1-0.1-0.2-0.3
		l-1.4-5.4c0-0.1-0.1-0.2-0.3-0.2h-1.4c-0.2,0-0.3,0.1-0.3,0.2c0,0,0,0.1,0,0.1l1.8,6.1c0.3,1,0.8,1.1,1.2,1.1h0.2l-0.1,0.4
		c-0.2,0.7-0.5,0.9-1.1,0.9c-0.4,0-1.2-0.1-1.6-0.1h0c-0.2,0-0.3,0.1-0.3,0.2v0.9c0,0.1,0.1,0.2,0.3,0.2c0.3,0.1,1,0.2,1.5,0.2
		c1.9,0,2.4-0.6,2.8-2.1L525.2,136.1C525.2,136.2,525.2,136.2,525.2,136.1L525.2,136.1L525.2,136.1z"/>
	<path class="st3" d="M532.9,140.2v-1c0-2.1-1.1-3.3-3.3-3.3c-0.3,0-0.8,0-1.3,0.1v-2.4c0-0.1-0.1-0.3-0.3-0.3h-1.3
		c-0.2,0-0.3,0.1-0.3,0.3v9.3c0,0.2,0.1,0.3,0.4,0.4c0.9,0.2,1.9,0.4,2.8,0.4C531.8,143.5,532.9,142.3,532.9,140.2L532.9,140.2
		L532.9,140.2z M531.1,140.2c0,1.1-0.3,1.9-1.5,1.9c-0.5,0-1.1,0-1.3-0.1v-4.6c0.4-0.1,1-0.1,1.3-0.1c1.2,0,1.5,0.8,1.5,1.9V140.2
		L531.1,140.2z"/>
	<path class="st0" d="M558.6,133.2c0,0-0.6,0-0.9,0.6l-0.3,0.5c0,0-0.3,0.6,0.2,0.6h0.7c0,0,0.6,0,0.9-0.6l0.3-0.5
		c0,0,0.3-0.6-0.2-0.6H558.6"/>
	<path class="st0" d="M550.3,143v-0.9c0-0.1-0.1-0.2-0.2-0.2h0c-0.5,0.1-0.9,0.1-1.8,0.1c-0.7,0-1.3-0.4-1.3-1.7V139
		c0-1.4,0.7-1.7,1.3-1.7c0.9,0,1.2,0,1.8,0.1h0c0.1,0,0.2-0.1,0.2-0.2v-0.9c0-0.2-0.1-0.3-0.3-0.4c-0.3-0.1-0.9-0.2-1.8-0.2
		c-1.8,0-3.2,1.1-3.2,3.2v1.2c0,2.2,1.4,3.2,3.2,3.2c0.8,0,1.5-0.1,1.8-0.2C550.3,143.3,550.3,143.2,550.3,143"/>
	<path class="st0" d="M558.4,143.2C558.4,143.2,558.4,143.2,558.4,143.2l-2.6-3.7l2.3-3.4c0,0,0-0.1,0-0.1c0-0.1-0.1-0.1-0.2-0.1
		h-1.4c-0.2,0-0.2,0-0.4,0.3l-1.3,2.1l-1.4-2.1c-0.1-0.2-0.2-0.3-0.4-0.3h-1.6c-0.1,0-0.2,0.1-0.2,0.2c0,0,0,0.1,0,0.1l2.3,3.4
		l-2.5,3.6c0,0,0,0.1,0,0.1c0,0.1,0.1,0.1,0.2,0.1h1.4c0.2,0,0.2,0,0.4-0.3l1.5-2.3l1.6,2.3c0.2,0.2,0.2,0.3,0.4,0.3h1.6
		C558.3,143.4,558.4,143.4,558.4,143.2L558.4,143.2L558.4,143.2z"/>
	<path class="st3" d="M536.4,134.7v-1.2c0-0.1-0.1-0.3-0.3-0.3h-1.3c-0.2,0-0.3,0.1-0.3,0.3v1.2c0,0.1,0.1,0.3,0.3,0.3h1.3
		C536.2,135,536.4,134.9,536.4,134.7L536.4,134.7z"/>
	<path class="st3" d="M536.3,143.1v-7c0-0.1-0.1-0.3-0.3-0.3h-1.3c-0.2,0-0.3,0.1-0.3,0.3v7c0,0.1,0.1,0.3,0.3,0.3h1.3
		C536.2,143.4,536.3,143.3,536.3,143.1L536.3,143.1z"/>
	<path class="st3" d="M542.5,143.2v-0.8c0-0.1-0.1-0.2-0.3-0.2h-0.7c-0.5,0-0.5-0.1-0.5-0.8v-4.2h1.2c0.2,0,0.3-0.1,0.3-0.3v-0.8
		c0-0.1-0.1-0.3-0.3-0.3H541v-1.4c0-0.1-0.1-0.2-0.2-0.2h-0.1l-1.3,0.2c-0.2,0-0.3,0.1-0.3,0.3v1.1h-1.3c-0.2,0-0.3,0.1-0.3,0.3v0.6
		c0,0.1,0.1,0.2,0.3,0.3l1.3,0.2v4.2c0,1.8,0.6,2.1,2.2,2.1c0.3,0,0.6,0,0.9-0.1C542.4,143.4,542.5,143.3,542.5,143.2L542.5,143.2
		L542.5,143.2z"/>
</g>
</svg>
